<?xml version="1.0" encoding="UTF-8"?>
<svg id="Layer_2" data-name="Layer 2" xmlns="http://www.w3.org/2000/svg" viewBox="0 0 180 180">
  <defs>
    <style>
      .cls-1 {
        fill: #e41e2b;
      }

      .cls-2 {
        fill: #b1b1b1;
      }
    </style>
  </defs>
  <g id="Layer_1-2" data-name="Layer 1">
    <rect class="cls-2" width="180" height="180"/>
    <g>
      <path class="cls-1" d="m147.76,111.17c-7.83,0-8.42-7.96-8.83-9.89,4.72,0,20.67,0,20.68-10.01,0-7.17-7.83-10.69-13.89-10.69-11.4,0-18.71,6.86-18.71,18.52,0,7.67,3.32,11,4.37,12.14,0,0,0,0,0,0,1.04,1.07,2.47,2.23,4.36,3.2,1.71.8,4.71,1.83,8.93,1.84,12.06,0,15.23-9.27,15.64-10.49,0,0-4.71,5.4-12.54,5.38m-2.95-27.85c3.85,0,5.54,4.25,5.54,8,0,6.72-9.58,6.67-11.64,6.67,0-11.95,3.35-14.67,6.1-14.67"/>
      <path class="cls-1" d="m77.11,80.43c-9.77,0-19.49,5.58-19.51,17.98,0,1.2.15,2.54.34,3.56.11.61.4,1.71.7,2.69-2.23,2.93-6.5,7.17-12.77,7.17-8.63,0-14.8-6.18-14.79-20.9.01-14.72,5.78-22.42,13.55-22.42,9.94,0,14.36,11.46,15.09,13.17v-12.85l-5.4-1.79c-1.81-.6-3.67-1.07-5.56-1.36-1.38-.21-2.9-.34-4.57-.35-15.14,0-26.19,11.52-26.2,26.41-.02,14.81,10.03,24.73,24.51,24.74,10.07,0,15.44-5.13,17.79-8.13,1.87,2.9,6.47,7.89,16.01,7.9,13.2,0,19.87-8.45,19.87-18.17.01-9.68-6.28-17.65-19.08-17.66m-.88,33.17c-6.92,0-7.07-11.33-7.06-15.66,0-2.67-.07-14.89,7.45-14.89,6.59,0,6.96,10.49,6.95,15.28,0,4.79-.61,15.27-7.35,15.27"/>
      <path class="cls-1" d="m129.8,80.17h-6.41l-4.34,5.06c-.1.13-.21.28-.35.43-.36.41-5.16,6.02-7.76,9.07h0s-1.62,1.9-1.62,1.9c0,0-.02.02-.02.02v-.02s-.02.02-.02.02l.02-28.91h-10.91s0,5.42,0,5.42c0,1.33-.02,42.04-.02,42.04h10.92s0-11.15,0-11.15l2.55-2.95,8.03,14.11h10.99l-12.78-21.43,11.74-13.59Z"/>
      <path class="cls-1" d="m138.93,72.02c-.38.42-.79.99-1.11,1.66,0,0,1.89-.49,2.93-1.79.22-.3.62-.84.36-1.16-.08-.11-.63-.44-2.17,1.29m-4.22,3.85c-.75.76-1.52,1.45-2.41,1.93-.73.31-1.65.64-2.36.07-.35-.31-.37-.84-.25-1.28.13-.47.37-.89.61-1.32,0,0,3.04-5.57,3.07-5.63.03-.06.09-.06.09-.06.54,0,2.17,0,2.24,0,.06,0,.01.11.02.07.02-.03-1.05,1.98-1.05,1.98,0,0-2.29,4.23-2.38,4.4-.22.44-.02.77.63.36.8-.51,1.24-1.03,1.72-1.67.65-.85,1.01-1.98,2.12-3.15,1.09-1.15,1.95-1.69,2.88-2.01,1.06-.37,2.24-.12,2.52.67.25.67-.12,1.6-.6,2.15-1.13,1.29-2.65,1.99-4.24,2.35-.27.39-.71,1.96.71,1.94.8-.03,1.46-.46,2.17-.93,1.24-.88,2.39-1.98,3.19-3.23.39-.69.81-1.38,1.15-2.07h-1.39s.49-.85.49-.85h1.38l1.53-2.69h2.26s-1.29,2.45-1.42,2.69c.33,0,1.74,0,1.74,0l-.42.85h-1.77s-.23.37-.23.37c0,0-1.88,3.49-2.54,4.68-.55.98-.14,1.14.27.97.54-.23,1.22-.96,1.46-1.2.41-.48.82-.95,1.16-1.46.31,0,.76,0,.89,0-1.07,1.76-2.72,3.78-4.79,4.34-.56.09-1.24.11-1.64-.32-.38-.4-.36-1.07-.17-1.55.06-.16.14-.33.18-.4.03-.06-.01-.1-.08-.03-1.28,1.19-2.85,2.35-4.58,2.36-.7,0-1.51-.31-1.86-1-.35-.68-.27-1.14-.27-1.32m2.39-9.34c.32.55-.04,1.3-.67,1.66-.64.37-1.48.29-1.79-.27-.31-.55,0-1.28.68-1.67.68-.38,1.48-.27,1.78.28m-10.8-.54c-.15.24-.31.52-.6,1.08-.29.56-.87,2.2-1.34,3.33-.82,1.97-2.05,3.73-3.54,4.98-1.24,1.05-1.88,1.49-2.9,1.85,0,0,.38.14,1.24.18,3.33.14,6.14-1.34,7.73-3.57,1.46-2.07,2.52-4.86.83-7.38-1.58-2.37-8.55-3.32-12.32-.08-2.08,1.79-1.35,4.49,1.59,3.35.52-.23.99-.62,1.18-.98,1.69.62,3.71-.69,3.71-.69,0,0-1.44,3.22-4.94,3.69-3.57.47-4.57-1.4-4.53-2.71.35-4.38,8.97-6.94,14.11-4.71,4.22,1.83,5.11,5.05,4.25,7.63-1.27,3.79-4.5,5.4-7.58,6.07-3.31.72-6.01.07-6.9-.16-.38-.1-.56-.22-.56-.22,0,0,1.18-.81,2.3-2.18.95-1.15,1.95-2.56,2.65-3.76,1.62-2.77,3.76-4.97,5.6-5.73"/>
      <path class="cls-1" d="m161.04,112.69c.3.17.53.41.7.7.17.3.26.62.26.97s-.09.68-.26.97c-.17.3-.41.53-.7.7-.29.17-.62.26-.97.26s-.68-.09-.97-.26c-.3-.17-.53-.41-.7-.7-.17-.29-.26-.62-.26-.97s.09-.68.26-.97c.17-.29.41-.53.7-.7.29-.17.62-.26.97-.26s.68.09.97.26m-.19,3.04c.24-.14.42-.33.56-.57.14-.24.21-.5.21-.79s-.07-.55-.21-.79c-.14-.24-.33-.43-.56-.57-.24-.14-.5-.21-.79-.21s-.55.07-.79.21c-.24.14-.42.33-.56.57-.14.24-.21.51-.21.79s.07.55.21.79c.14.24.33.43.56.57.24.14.5.21.79.21s.55-.07.79-.21m-.06-1.4c-.06.09-.13.16-.23.2l.47.69h-.51l-.42-.64h-.34v.64s-.44,0-.44,0v-1.75s1,0,1,0c.17,0,.31.05.41.16.1.11.15.24.15.39,0,.11-.03.22-.08.31m-1.03-.14h.47c.06,0,.1-.01.13-.05.03-.03.05-.07.05-.12s-.02-.09-.05-.12c-.03-.03-.08-.05-.13-.05h-.48v.34Z"/>
    </g>
  </g>
</svg>